#N canvas 48 124 740 613 12;
#X floatatom 98 116 5 0 0 0 - - - 0;
#X obj 79 60 notein;
#X obj 38 89 stripnote;
#X floatatom 38 116 4 0 0 0 - - - 0;
#X floatatom 181 89 3 0 0 0 - - - 0;
#X floatatom 151 89 3 0 0 0 - - - 0;
#X obj 165 60 ctlin;
#X obj 38 142 bng 20 250 50 0 empty empty empty 17 7 0 10 #dfdfdf #000000 #000000;
#X obj 151 116 bng 20 250 50 0 empty empty empty 17 7 0 10 #dfdfdf #000000 #000000;
#X obj 567 46 loadbang;
#X obj 567 115 tgl 20 0 empty empty empty 0 -10 0 12 #fcfcfc #000000 #000000 0 1;
#X msg 567 81 1;
#X msg 567 149 \; pd dsp \$1 \;;
#X text 85 33 --- MIDI Test ---;
#X connect 1 0 2 0;
#X connect 1 1 2 1;
#X connect 2 0 3 0;
#X connect 2 1 0 0;
#X connect 3 0 7 0;
#X connect 5 0 8 0;
#X connect 6 0 5 0;
#X connect 6 1 4 0;
#X connect 9 0 11 0;
#X connect 10 0 12 0;
#X connect 11 0 10 0;
