#N canvas 48 124 1185 894 12;
#X floatatom 98 116 5 0 0 0 - - - 0;
#X obj 79 60 notein;
#X obj 38 89 stripnote;
#X floatatom 38 116 4 0 0 0 - - - 0;
#X floatatom 181 89 3 0 0 0 - - - 0;
#X floatatom 151 89 3 0 0 0 - - - 0;
#X obj 165 60 ctlin;
#X obj 38 142 bng 20 250 50 0 empty empty empty 17 7 0 10 #dfdfdf #000000 #000000;
#X obj 151 116 bng 20 250 50 0 empty empty empty 17 7 0 10 #dfdfdf #000000 #000000;
#X obj 269 25 loadbang;
#X obj 269 94 tgl 20 0 empty empty empty 0 -10 0 12 #fcfcfc #000000 #000000 0 1;
#X msg 269 60 1;
#X msg 269 128 \; pd dsp \$1 \;;
#X text 85 33 --- MIDI Test ---;
#X obj 675 221 f;
#X obj 677 176 + 60;
#X obj 687 112 / 5;
#X obj 555 111 select 0;
#X obj 536 27 notein;
#X obj 685 141 int;
#X obj 730 140 + 60;
#X obj 729 167 mtof;
#X obj 730 193 s realfreq;
#X obj 663 787 dac~;
#N canvas 120 124 489 564 voice 0;
#X obj 219 46 unpack 0 0;
#X obj 151 317 osc~, f 6;
#X obj 286 76 select 0;
#X obj 158 390 *~;
#X obj 244 371 line~;
#X obj 217 146 mtof;
#X msg 228 334 0 \$1;
#X obj 117 151 -;
#X obj 111 92 r realfreq;
#X obj 110 221 osc~, f 6;
#X obj 178 255 sig~;
#X obj 146 286 +~;
#X obj 136 254 *~ 2;
#X obj 118 123 spigot;
#X msg 348 102 1;
#X msg 270 110 0;
#X obj 343 185 bang;
#X obj 241 230 timer;
#X obj 226 301 * 2;
#X obj 219 20 inlet;
#X obj 151 465 outlet~;
#X obj 244 466 outlet;
#X obj 227 269 select 0;
#X obj 255 182 bang;
#X msg 300 286 0.5 10;
#X obj 104 184 / 50;
#X obj 142 185 / 10;
#X connect 0 0 5 0;
#X connect 0 1 2 0;
#X connect 1 0 3 0;
#X connect 2 0 15 0;
#X connect 2 0 23 0;
#X connect 2 1 14 0;
#X connect 2 1 16 0;
#X connect 3 0 20 0;
#X connect 4 0 3 1;
#X connect 5 0 10 0;
#X connect 5 0 7 1;
#X connect 6 0 4 0;
#X connect 7 0 25 0;
#X connect 7 0 26 0;
#X connect 8 0 13 0;
#X connect 9 0 12 0;
#X connect 10 0 11 1;
#X connect 11 0 1 0;
#X connect 12 0 11 0;
#X connect 13 0 7 0;
#X connect 14 0 13 1;
#X connect 15 0 13 1;
#X connect 16 0 17 0;
#X connect 16 0 24 0;
#X connect 17 0 22 0;
#X connect 18 0 6 0;
#X connect 19 0 0 0;
#X connect 22 1 21 0;
#X connect 22 1 18 0;
#X connect 23 0 17 1;
#X connect 24 0 4 0;
#X connect 25 0 9 0;
#X connect 26 0 12 1;
#X restore 475 509 pd voice;
#X obj 612 209 f;
#X obj 613 238 + 1;
#X floatatom 613 328 5 0 0 0 - - - 0;
#X msg 633 299 0;
#X obj 599 403 pack 0 0 0;
#X obj 577 359 f;
#X obj 600 170 t b f b;
#X obj 518 187 t b b;
#X msg 548 227 0;
#X msg 887 679 width 1;
#X msg 887 734 dry 1;
#X obj 889 598 loadbang;
#X msg 887 706 wet 0.5;
#X msg 889 654 damping 0.25;
#X msg 887 625 roomsize 0.85;
#X obj 574 445 route 0 1 2 3 4 5;
#X obj 610 269 moses 6;
#N canvas 120 124 489 564 voice 0;
#X obj 219 46 unpack 0 0;
#X obj 151 317 osc~, f 6;
#X obj 286 76 select 0;
#X obj 158 390 *~;
#X obj 244 371 line~;
#X obj 217 146 mtof;
#X msg 228 334 0 \$1;
#X obj 117 151 -;
#X obj 111 92 r realfreq;
#X obj 110 221 osc~, f 6;
#X obj 178 255 sig~;
#X obj 146 286 +~;
#X obj 136 254 *~ 2;
#X obj 118 123 spigot;
#X msg 348 102 1;
#X msg 270 110 0;
#X obj 343 185 bang;
#X obj 241 230 timer;
#X obj 226 301 * 2;
#X obj 219 20 inlet;
#X obj 151 465 outlet~;
#X obj 244 466 outlet;
#X obj 227 269 select 0;
#X obj 255 182 bang;
#X msg 300 286 0.5 10;
#X obj 104 184 / 50;
#X obj 142 185 / 10;
#X connect 0 0 5 0;
#X connect 0 1 2 0;
#X connect 1 0 3 0;
#X connect 2 0 15 0;
#X connect 2 0 23 0;
#X connect 2 1 14 0;
#X connect 2 1 16 0;
#X connect 3 0 20 0;
#X connect 4 0 3 1;
#X connect 5 0 10 0;
#X connect 5 0 7 1;
#X connect 6 0 4 0;
#X connect 7 0 25 0;
#X connect 7 0 26 0;
#X connect 8 0 13 0;
#X connect 9 0 12 0;
#X connect 10 0 11 1;
#X connect 11 0 1 0;
#X connect 12 0 11 0;
#X connect 13 0 7 0;
#X connect 14 0 13 1;
#X connect 15 0 13 1;
#X connect 16 0 17 0;
#X connect 16 0 24 0;
#X connect 17 0 22 0;
#X connect 18 0 6 0;
#X connect 19 0 0 0;
#X connect 22 1 21 0;
#X connect 22 1 18 0;
#X connect 23 0 17 1;
#X connect 24 0 4 0;
#X connect 25 0 9 0;
#X connect 26 0 12 1;
#X restore 545 509 pd voice;
#N canvas 120 124 489 564 voice 0;
#X obj 219 46 unpack 0 0;
#X obj 151 317 osc~, f 6;
#X obj 286 76 select 0;
#X obj 158 390 *~;
#X obj 244 371 line~;
#X obj 217 146 mtof;
#X msg 228 334 0 \$1;
#X obj 117 151 -;
#X obj 111 92 r realfreq;
#X obj 110 221 osc~, f 6;
#X obj 178 255 sig~;
#X obj 146 286 +~;
#X obj 136 254 *~ 2;
#X obj 118 123 spigot;
#X msg 348 102 1;
#X msg 270 110 0;
#X obj 343 185 bang;
#X obj 241 230 timer;
#X obj 226 301 * 2;
#X obj 219 20 inlet;
#X obj 151 465 outlet~;
#X obj 244 466 outlet;
#X obj 227 269 select 0;
#X obj 255 182 bang;
#X msg 300 286 0.5 10;
#X obj 104 184 / 50;
#X obj 142 185 / 10;
#X connect 0 0 5 0;
#X connect 0 1 2 0;
#X connect 1 0 3 0;
#X connect 2 0 15 0;
#X connect 2 0 23 0;
#X connect 2 1 14 0;
#X connect 2 1 16 0;
#X connect 3 0 20 0;
#X connect 4 0 3 1;
#X connect 5 0 10 0;
#X connect 5 0 7 1;
#X connect 6 0 4 0;
#X connect 7 0 25 0;
#X connect 7 0 26 0;
#X connect 8 0 13 0;
#X connect 9 0 12 0;
#X connect 10 0 11 1;
#X connect 11 0 1 0;
#X connect 12 0 11 0;
#X connect 13 0 7 0;
#X connect 14 0 13 1;
#X connect 15 0 13 1;
#X connect 16 0 17 0;
#X connect 16 0 24 0;
#X connect 17 0 22 0;
#X connect 18 0 6 0;
#X connect 19 0 0 0;
#X connect 22 1 21 0;
#X connect 22 1 18 0;
#X connect 23 0 17 1;
#X connect 24 0 4 0;
#X connect 25 0 9 0;
#X connect 26 0 12 1;
#X restore 615 509 pd voice;
#N canvas 120 124 489 564 voice 0;
#X obj 219 46 unpack 0 0;
#X obj 151 317 osc~, f 6;
#X obj 286 76 select 0;
#X obj 158 390 *~;
#X obj 244 371 line~;
#X obj 217 146 mtof;
#X msg 228 334 0 \$1;
#X obj 117 151 -;
#X obj 111 92 r realfreq;
#X obj 110 221 osc~, f 6;
#X obj 178 255 sig~;
#X obj 146 286 +~;
#X obj 136 254 *~ 2;
#X obj 118 123 spigot;
#X msg 348 102 1;
#X msg 270 110 0;
#X obj 343 185 bang;
#X obj 241 230 timer;
#X obj 226 301 * 2;
#X obj 219 20 inlet;
#X obj 151 465 outlet~;
#X obj 244 466 outlet;
#X obj 227 269 select 0;
#X obj 255 182 bang;
#X msg 300 286 0.5 10;
#X obj 104 184 / 50;
#X obj 142 185 / 10;
#X connect 0 0 5 0;
#X connect 0 1 2 0;
#X connect 1 0 3 0;
#X connect 2 0 15 0;
#X connect 2 0 23 0;
#X connect 2 1 14 0;
#X connect 2 1 16 0;
#X connect 3 0 20 0;
#X connect 4 0 3 1;
#X connect 5 0 10 0;
#X connect 5 0 7 1;
#X connect 6 0 4 0;
#X connect 7 0 25 0;
#X connect 7 0 26 0;
#X connect 8 0 13 0;
#X connect 9 0 12 0;
#X connect 10 0 11 1;
#X connect 11 0 1 0;
#X connect 12 0 11 0;
#X connect 13 0 7 0;
#X connect 14 0 13 1;
#X connect 15 0 13 1;
#X connect 16 0 17 0;
#X connect 16 0 24 0;
#X connect 17 0 22 0;
#X connect 18 0 6 0;
#X connect 19 0 0 0;
#X connect 22 1 21 0;
#X connect 22 1 18 0;
#X connect 23 0 17 1;
#X connect 24 0 4 0;
#X connect 25 0 9 0;
#X connect 26 0 12 1;
#X restore 685 509 pd voice;
#N canvas 120 124 489 564 voice 0;
#X obj 219 46 unpack 0 0;
#X obj 151 317 osc~, f 6;
#X obj 286 76 select 0;
#X obj 158 390 *~;
#X obj 244 371 line~;
#X obj 217 146 mtof;
#X msg 228 334 0 \$1;
#X obj 117 151 -;
#X obj 111 92 r realfreq;
#X obj 110 221 osc~, f 6;
#X obj 178 255 sig~;
#X obj 146 286 +~;
#X obj 136 254 *~ 2;
#X obj 118 123 spigot;
#X msg 348 102 1;
#X msg 270 110 0;
#X obj 343 185 bang;
#X obj 241 230 timer;
#X obj 226 301 * 2;
#X obj 219 20 inlet;
#X obj 151 465 outlet~;
#X obj 244 466 outlet;
#X obj 227 269 select 0;
#X obj 255 182 bang;
#X msg 300 286 0.5 10;
#X obj 104 184 / 50;
#X obj 142 185 / 10;
#X connect 0 0 5 0;
#X connect 0 1 2 0;
#X connect 1 0 3 0;
#X connect 2 0 15 0;
#X connect 2 0 23 0;
#X connect 2 1 14 0;
#X connect 2 1 16 0;
#X connect 3 0 20 0;
#X connect 4 0 3 1;
#X connect 5 0 10 0;
#X connect 5 0 7 1;
#X connect 6 0 4 0;
#X connect 7 0 25 0;
#X connect 7 0 26 0;
#X connect 8 0 13 0;
#X connect 9 0 12 0;
#X connect 10 0 11 1;
#X connect 11 0 1 0;
#X connect 12 0 11 0;
#X connect 13 0 7 0;
#X connect 14 0 13 1;
#X connect 15 0 13 1;
#X connect 16 0 17 0;
#X connect 16 0 24 0;
#X connect 17 0 22 0;
#X connect 18 0 6 0;
#X connect 19 0 0 0;
#X connect 22 1 21 0;
#X connect 22 1 18 0;
#X connect 23 0 17 1;
#X connect 24 0 4 0;
#X connect 25 0 9 0;
#X connect 26 0 12 1;
#X restore 756 508 pd voice;
#N canvas 120 124 489 564 voice 0;
#X obj 219 46 unpack 0 0;
#X obj 151 317 osc~, f 6;
#X obj 286 76 select 0;
#X obj 158 390 *~;
#X obj 244 371 line~;
#X obj 217 146 mtof;
#X msg 228 334 0 \$1;
#X obj 117 151 -;
#X obj 111 92 r realfreq;
#X obj 110 221 osc~, f 6;
#X obj 178 255 sig~;
#X obj 146 286 +~;
#X obj 136 254 *~ 2;
#X obj 118 123 spigot;
#X msg 348 102 1;
#X msg 270 110 0;
#X obj 343 185 bang;
#X obj 241 230 timer;
#X obj 226 301 * 2;
#X obj 219 20 inlet;
#X obj 151 465 outlet~;
#X obj 244 466 outlet;
#X obj 227 269 select 0;
#X obj 255 182 bang;
#X msg 300 286 0.5 10;
#X obj 104 184 / 50;
#X obj 142 185 / 10;
#X connect 0 0 5 0;
#X connect 0 1 2 0;
#X connect 1 0 3 0;
#X connect 2 0 15 0;
#X connect 2 0 23 0;
#X connect 2 1 14 0;
#X connect 2 1 16 0;
#X connect 3 0 20 0;
#X connect 4 0 3 1;
#X connect 5 0 10 0;
#X connect 5 0 7 1;
#X connect 6 0 4 0;
#X connect 7 0 25 0;
#X connect 7 0 26 0;
#X connect 8 0 13 0;
#X connect 9 0 12 0;
#X connect 10 0 11 1;
#X connect 11 0 1 0;
#X connect 12 0 11 0;
#X connect 13 0 7 0;
#X connect 14 0 13 1;
#X connect 15 0 13 1;
#X connect 16 0 17 0;
#X connect 16 0 24 0;
#X connect 17 0 22 0;
#X connect 18 0 6 0;
#X connect 19 0 0 0;
#X connect 22 1 21 0;
#X connect 22 1 18 0;
#X connect 23 0 17 1;
#X connect 24 0 4 0;
#X connect 25 0 9 0;
#X connect 26 0 12 1;
#X restore 826 508 pd voice;
#X obj 670 622 *~ 0.25;
#X obj 686 28 ctlin 1;
#X obj 648 734 freeverb~, f 11;
#X connect 1 0 2 0;
#X connect 1 1 2 1;
#X connect 2 0 3 0;
#X connect 2 1 0 0;
#X connect 3 0 7 0;
#X connect 5 0 8 0;
#X connect 6 0 5 0;
#X connect 6 1 4 0;
#X connect 9 0 11 0;
#X connect 10 0 12 0;
#X connect 11 0 10 0;
#X connect 14 0 29 1;
#X connect 15 0 14 1;
#X connect 16 0 19 0;
#X connect 16 0 20 0;
#X connect 17 0 32 0;
#X connect 17 1 31 0;
#X connect 18 1 17 0;
#X connect 19 0 15 0;
#X connect 20 0 21 0;
#X connect 21 0 22 0;
#X connect 24 0 47 0;
#X connect 25 0 26 0;
#X connect 26 0 41 0;
#X connect 27 0 25 1;
#X connect 27 0 30 1;
#X connect 27 0 29 0;
#X connect 28 0 27 0;
#X connect 29 0 40 0;
#X connect 30 0 29 0;
#X connect 31 0 25 0;
#X connect 31 1 29 2;
#X connect 31 2 14 0;
#X connect 32 0 30 0;
#X connect 32 1 33 0;
#X connect 33 0 29 2;
#X connect 34 0 37 0;
#X connect 34 0 49 0;
#X connect 35 0 49 0;
#X connect 36 0 39 0;
#X connect 37 0 35 0;
#X connect 37 0 49 0;
#X connect 38 0 34 0;
#X connect 38 0 49 0;
#X connect 39 0 38 0;
#X connect 39 0 49 0;
#X connect 40 0 24 0;
#X connect 40 1 42 0;
#X connect 40 2 43 0;
#X connect 40 3 44 0;
#X connect 40 4 45 0;
#X connect 40 5 46 0;
#X connect 41 0 27 0;
#X connect 41 1 28 0;
#X connect 42 0 47 0;
#X connect 43 0 47 0;
#X connect 44 0 47 0;
#X connect 45 0 47 0;
#X connect 46 0 47 0;
#X connect 47 0 49 0;
#X connect 48 0 16 0;
#X connect 49 0 23 0;
#X connect 49 1 23 1;
