#N canvas 48 124 740 818 12;
#X floatatom 98 116 5 0 0 0 - - - 0;
#X obj 79 60 notein;
#X obj 38 89 stripnote;
#X floatatom 38 116 4 0 0 0 - - - 0;
#X floatatom 181 89 3 0 0 0 - - - 0;
#X floatatom 151 89 3 0 0 0 - - - 0;
#X obj 165 60 ctlin;
#X obj 38 142 bng 20 250 50 0 empty empty empty 17 7 0 10 #dfdfdf #000000 #000000;
#X obj 151 116 bng 20 250 50 0 empty empty empty 17 7 0 10 #dfdfdf #000000 #000000;
#X obj 567 46 loadbang;
#X obj 567 115 tgl 20 0 empty empty empty 0 -10 0 12 #fcfcfc #000000 #000000 0 1;
#X msg 567 81 1;
#X msg 567 149 \; pd dsp \$1 \;;
#X text 85 33 --- MIDI Test ---;
#X obj 212 541 osc~, f 6;
#X obj 200 710 dac~;
#X floatatom 369 327 5 0 0 0 - - - 0;
#X obj 369 351 + 60;
#X obj 369 377 mtof;
#X text 363 205 midi input for CONTROL instructions;
#X text 261 659 Tone Generator (oscillator);
#X text 259 709 SoundCard output (Digital - Analog Converter);
#X text 409 379 Midi note to tone frequency;
#X floatatom 84 311 5 0 0 0 - - - 0;
#X obj 84 339 / 127;
#X obj 84 483 line~;
#X obj 197 595 *~;
#X obj 70 242 notein;
#X text 78 210 midi input for NOTE instructions;
#X text 267 597 set Volume (on/off;
#X text 87 365 divide so value is between 0 and 1;
#X text 139 433 smooth;
#X obj 83 455 pack 0 10;
#X obj 368 303 / 5;
#X obj 369 261 ctlin 1;
#X floatatom 44 279 5 0 0 0 - - - 0;
#X connect 1 0 2 0;
#X connect 1 1 2 1;
#X connect 2 0 3 0;
#X connect 2 1 0 0;
#X connect 3 0 7 0;
#X connect 5 0 8 0;
#X connect 6 0 5 0;
#X connect 6 1 4 0;
#X connect 9 0 11 0;
#X connect 10 0 12 0;
#X connect 11 0 10 0;
#X connect 14 0 26 1;
#X connect 16 0 17 0;
#X connect 17 0 18 0;
#X connect 18 0 14 0;
#X connect 23 0 24 0;
#X connect 24 0 32 0;
#X connect 25 0 26 0;
#X connect 26 0 15 0;
#X connect 26 0 15 1;
#X connect 27 0 35 0;
#X connect 27 1 23 0;
#X connect 32 0 25 0;
#X connect 33 0 16 0;
#X connect 34 0 33 0;
