#N canvas 209 204 1387 818 12;
#X floatatom 98 116 5 0 0 0 - - - 0;
#X obj 79 60 notein;
#X obj 38 89 stripnote;
#X floatatom 38 116 4 0 0 0 - - - 0;
#X floatatom 181 89 3 0 0 0 - - - 0;
#X floatatom 151 89 3 0 0 0 - - - 0;
#X obj 165 60 ctlin;
#X obj 38 142 bng 20 250 50 0 empty empty empty 17 7 0 10 #dfdfdf #000000 #000000;
#X obj 151 116 bng 20 250 50 0 empty empty empty 17 7 0 10 #dfdfdf #000000 #000000;
#X obj 567 46 loadbang;
#X obj 567 115 tgl 20 0 empty empty empty 0 -10 0 12 #fcfcfc #000000 #000000 0 1;
#X msg 567 81 1;
#X msg 567 149 \; pd dsp \$1 \;;
#X text 85 33 --- MIDI Test ---;
#X text 228 653 SoundCard output (Digital - Analog Converter);
#X text 230 611 set Volume (on/off;
#N canvas 0 50 450 250 (subpatch) 0;
#X array sampleData 253500 float 2;
#X coords 0 1 253500 -1 400 140 1 0 0;
#X restore 821 189 graph;
#X obj 821 115 soundfiler;
#X msg 822 87 read -resize ChangeTheBeat.wav sampleData;
#X obj 821 60 loadbang;
#X obj 183 653 dac~;
#X obj 182 613 *~;
#X floatatom 92 304 5 0 0 0 - - - 0;
#X obj 92 332 / 127;
#X obj 92 476 line~;
#X obj 73 231 notein;
#X text 25 281 divide so value is between 0 and 1;
#X text 150 474 smooth;
#X obj 91 448 pack 0 10;
#X obj 209 310 select 0;
#X obj 820 142 s sampleSize;
#X obj 464 330 r sampleSize;
#X obj 434 420 *;
#X obj 377 319 / 127;
#X obj 381 494 f;
#X obj 262 428 bang;
#X obj 381 533 tabplay~ sampleData;
#X text 534 532 play sample from position;
#X text 256 455 trigger playback;
#X text 562 326 end position;
#X text 924 115 load sample;
#X text 445 290 control input sets start position;
#X text 471 419 multiply to get fader position, f 29;
#X text 418 493 store, f 29;
#X obj 377 291 ctlin 1;
#X connect 1 0 2 0;
#X connect 1 1 2 1;
#X connect 2 0 3 0;
#X connect 2 1 0 0;
#X connect 3 0 7 0;
#X connect 5 0 8 0;
#X connect 6 0 5 0;
#X connect 6 1 4 0;
#X connect 9 0 11 0;
#X connect 10 0 12 0;
#X connect 11 0 10 0;
#X connect 17 0 30 0;
#X connect 18 0 17 0;
#X connect 19 0 18 0;
#X connect 21 0 20 0;
#X connect 21 0 20 1;
#X connect 22 0 23 0;
#X connect 23 0 28 0;
#X connect 24 0 21 0;
#X connect 25 1 22 0;
#X connect 25 1 29 0;
#X connect 28 0 24 0;
#X connect 29 1 35 0;
#X connect 31 0 32 1;
#X connect 32 0 34 1;
#X connect 33 0 32 0;
#X connect 34 0 36 0;
#X connect 35 0 34 0;
#X connect 36 0 21 1;
#X connect 44 0 33 0;
